<svg width="219" height="16" viewBox="0 0 219 16" fill="none" xmlns="http://www.w3.org/2000/svg">
<path d="M8.20795 0.810571H24.6238V0.901354L18.6425 4.62346H10.3036C10.0271 5.03198 9.60504 5.78851 9.03747 6.89304H14.8005V6.98382L9.867 9.93427H7.2911L6.15596 12.0677H18.5989L18.6425 12.1131H18.6862C17.3691 14.5566 16.6706 15.7973 16.5905 15.8352H0.0873186L0.0436593 15.7898H0C5.35554 5.92469 8.09152 0.931615 8.20795 0.810571Z" fill="white"/>
<path d="M34.469 0.810571C36.0335 0.810571 37.0376 1.29475 37.4815 2.2631L37.5688 2.8078V2.94397C37.5688 3.58702 37.0158 4.84285 35.9098 6.71147C32.6571 12.6351 30.969 15.6612 30.8453 15.7898H26.8286L28.7933 12.0677H22.5937C22.4773 12.1887 21.7933 13.4294 20.5417 15.7898L20.498 15.8352H16.3941V15.7898C20.3816 8.48931 22.5646 4.55537 22.943 3.98798C24.0563 2.71702 24.944 1.94536 25.6062 1.67301C26.443 1.1964 27.3162 0.92405 28.2257 0.855962L34.469 0.810571ZM24.602 8.39096H30.8016C31.8495 6.69634 32.3734 5.74312 32.3734 5.53129V5.34973C32.3734 4.86555 31.8786 4.62346 30.8889 4.62346H28.837C27.2216 4.62346 25.9846 5.54642 25.1259 7.39234C24.7766 7.97487 24.602 8.30774 24.602 8.39096Z" fill="white"/>
<path d="M44.9691 0.810571H56.4951V0.855962C52.7695 3.36763 50.834 4.62346 50.6884 4.62346H47.414L44.6198 4.57807C43.3682 4.57807 42.2185 5.34973 41.1707 6.89304H47.545C48.9421 6.89304 49.8153 7.2713 50.1645 8.02783L50.2518 8.43635V8.75409C50.2518 9.30636 49.6552 10.5319 48.4618 12.4308C47.3776 13.9439 46.126 14.9273 44.7071 15.3813C43.8194 15.6839 43.0772 15.8352 42.4805 15.8352H32.2206V15.7444L37.547 12.4762C37.9909 12.1736 38.2674 12.0223 38.3765 12.0223L42.7424 11.9769C43.2664 11.9769 43.8776 11.7651 44.5761 11.3414C45.2965 10.7135 45.6894 10.2293 45.7549 9.88888H40.2975C38.2237 9.88888 37.0886 9.52575 36.8921 8.79948L36.7611 8.30018V8.07322C36.7611 7.36208 37.5324 5.89442 39.0751 3.67024C40.4503 1.76379 42.415 0.810571 44.9691 0.810571Z" fill="white"/>
<path d="M57.9359 0.719788H71.7759V0.810571L65.7945 4.62346H61.9962L55.7966 15.8352H51.7363L51.6489 15.7444L57.8486 4.57807H51.9546V4.48729L57.9359 0.719788Z" fill="white"/>
<path d="M76.6221 0.810571H88.1481V0.855962C84.4225 3.36763 82.4869 4.62346 82.3414 4.62346H79.067L76.2728 4.57807C75.0212 4.57807 73.8715 5.34973 72.8237 6.89304H79.198C80.595 6.89304 81.4682 7.2713 81.8175 8.02783L81.9048 8.43635V8.75409C81.9048 9.30636 81.3082 10.5319 80.1148 12.4308C79.0306 13.9439 77.779 14.9273 76.3601 15.3813C75.4724 15.6839 74.7301 15.8352 74.1335 15.8352H63.8735V15.7444L69.2 12.4762C69.6438 12.1736 69.9203 12.0223 70.0295 12.0223L74.3954 11.9769C74.9193 11.9769 75.5306 11.7651 76.2291 11.3414C76.9495 10.7135 77.3424 10.2293 77.4079 9.88888H71.9505C69.8767 9.88888 68.7415 9.52575 68.5451 8.79948L68.4141 8.30018V8.07322C68.4141 7.36208 69.1854 5.89442 70.7281 3.67024C72.1033 1.76379 74.068 0.810571 76.6221 0.810571Z" fill="white"/>
<path d="M91.881 0.901354V0.992137L83.804 15.7898L83.7603 15.8352H79.7874L79.7437 15.7898H79.7L87.7333 0.901354H91.881Z" fill="white"/>
<path d="M103.298 0.765179C104.862 0.765179 105.881 1.20396 106.354 2.08153C106.47 2.30849 106.529 2.58084 106.529 2.89858C106.529 3.5265 106.019 4.70668 105.001 6.43912L101.464 12.8393C100.555 14.1254 99.303 15.0181 97.7095 15.5174C97.3238 15.6385 96.7999 15.7293 96.1378 15.7898L85.8778 15.8352H85.3976L85.3102 15.7444L93.5182 0.810571L93.5619 0.765179H103.298ZM95.6138 4.62346L91.5535 11.9769V12.0223H95.8321C97.2656 12.0223 98.4444 11.0237 99.3685 9.02644C100.62 6.9233 101.246 5.6826 101.246 5.30433C101.246 4.85042 100.882 4.62346 100.154 4.62346H95.6138Z" fill="white"/>
<path d="M109.345 0.810571H125.761V0.901354L119.779 4.62346H111.44C111.164 5.03198 110.742 5.78851 110.174 6.89304H115.937V6.98382L111.004 9.93427H108.428L107.293 12.0677H119.736L119.779 12.1131H119.823C118.506 14.5566 117.807 15.7973 117.727 15.8352H101.224L101.18 15.7898H101.137C106.492 5.92469 109.228 0.931615 109.345 0.810571Z" fill="white"/>
<path d="M125.739 0.719788H135.431C137.25 0.719788 138.313 1.30988 138.618 2.49006L138.662 2.8078C138.662 3.47354 138.036 4.88068 136.785 7.02921C136.064 8.52713 135.278 9.48036 134.427 9.88888L133.292 10.1612V10.2066C133.874 10.2066 134.223 10.4941 134.34 11.0691V11.2052C134.34 11.5003 133.641 12.8772 132.244 15.3359L131.982 15.7898L129.581 15.8352H127.922L127.834 15.7444L129.843 12.0223H123.73L121.591 15.7898H117.531C117.705 15.3434 118.972 12.9982 121.329 8.75409C124.145 3.5265 125.615 0.848397 125.739 0.719788ZM125.782 8.30018H129.232C131.203 8.30018 132.353 7.83113 132.681 6.89304C133.117 6.10625 133.335 5.59181 133.335 5.34973V5.03198C133.161 4.72937 132.812 4.57807 132.288 4.57807H127.834C126.466 6.94599 125.782 8.1867 125.782 8.30018Z" fill="white"/>
<path d="M146.106 0.810571H157.632V0.855962C153.906 3.36763 151.971 4.62346 151.825 4.62346H148.551L145.757 4.57807C144.505 4.57807 143.355 5.34973 142.307 6.89304H148.682C150.079 6.89304 150.952 7.2713 151.301 8.02783L151.389 8.43635V8.75409C151.389 9.30636 150.792 10.5319 149.599 12.4308C148.514 13.9439 147.263 14.9273 145.844 15.3813C144.956 15.6839 144.214 15.8352 143.617 15.8352H133.357V15.7444L138.684 12.4762C139.128 12.1736 139.404 12.0223 139.513 12.0223L143.879 11.9769C144.403 11.9769 145.014 11.7651 145.713 11.3414C146.433 10.7135 146.826 10.2293 146.892 9.88888H141.434C139.36 9.88888 138.225 9.52575 138.029 8.79948L137.898 8.30018V8.07322C137.898 7.36208 138.669 5.89442 140.212 3.67024C141.587 1.76379 143.552 0.810571 146.106 0.810571Z" fill="white"/>
<path d="M161.094 12C160.89 12 160.714 11.9062 160.564 11.7186C160.415 11.5311 160.341 11.3216 160.341 11.0903C160.341 11.009 160.351 10.9308 160.371 10.8558C160.419 10.6745 160.459 10.3306 160.493 9.82415C160.527 9.31145 160.544 8.67995 160.544 7.92966C160.544 7.86714 160.541 7.80774 160.534 7.75147C160.534 7.69519 160.531 7.64205 160.524 7.59203C160.015 8.01719 159.466 8.40797 158.875 8.76436C158.292 9.1145 157.702 9.41149 157.105 9.65533C157.01 9.62407 156.979 9.5678 157.013 9.48652C157.414 9.23017 157.817 8.92692 158.224 8.57679C158.638 8.22665 159.031 7.8515 159.405 7.45135C159.778 7.05119 160.113 6.64166 160.412 6.22274C160.717 5.80383 160.955 5.40367 161.124 5.02227C161.158 4.94099 161.175 4.86596 161.175 4.79719C161.175 4.67839 161.124 4.59086 161.022 4.53458C161.009 4.50957 161.002 4.48769 161.002 4.46893C161.002 4.42517 161.022 4.3939 161.063 4.37515C161.097 4.36264 161.131 4.35639 161.165 4.35639C161.206 4.35639 161.243 4.35639 161.277 4.35639C161.494 4.35639 161.718 4.40328 161.948 4.49707C162.179 4.5846 162.372 4.69089 162.528 4.81594C162.691 4.94099 162.772 5.05666 162.772 5.16295C162.772 5.28175 162.715 5.37554 162.6 5.44431C162.498 5.50684 162.399 5.59125 162.304 5.69754C162.216 5.79758 162.145 5.88198 162.091 5.95076C161.833 6.29465 161.535 6.63853 161.195 6.98241C161.385 7.04494 161.538 7.1356 161.653 7.2544C161.694 7.29816 161.714 7.37319 161.714 7.47948C161.714 7.53576 161.704 7.5889 161.684 7.63892C161.657 7.68894 161.633 7.75772 161.613 7.84525C161.599 7.93279 161.589 7.99844 161.582 8.0422C161.575 8.13599 161.572 8.23603 161.572 8.34232C161.572 8.44236 161.572 8.54553 161.572 8.65182C161.572 8.93943 161.575 9.23955 161.582 9.55217C161.596 9.85854 161.609 10.1524 161.623 10.4338C161.643 10.7089 161.657 10.9402 161.663 11.1278C161.677 11.3154 161.684 11.4342 161.684 11.4842C161.684 11.6217 161.629 11.7405 161.521 11.8406C161.412 11.9469 161.27 12 161.094 12Z" fill="white"/>
<path d="M171.381 7.74209C171.516 7.82337 171.594 7.92966 171.615 8.06096C171.635 8.19226 171.594 8.30793 171.493 8.40797C171.391 8.50176 171.221 8.5424 170.984 8.52989C170.699 8.51114 170.377 8.50176 170.017 8.50176C169.664 8.50176 169.318 8.50176 168.979 8.50176C168.891 8.50176 168.8 8.50176 168.705 8.50176C168.616 8.50176 168.532 8.50176 168.45 8.50176C168.294 8.50176 168.091 8.50488 167.84 8.51114C167.589 8.51114 167.314 8.51739 167.015 8.52989C166.717 8.53615 166.419 8.54553 166.12 8.55803C165.828 8.57054 165.56 8.58929 165.316 8.6143C165.072 8.63306 164.879 8.65494 164.736 8.67995C164.506 8.72372 164.326 8.7331 164.197 8.70809C164.068 8.68308 163.946 8.62993 163.831 8.54865C163.702 8.44861 163.586 8.32982 163.485 8.19226C163.383 8.04846 163.315 7.91403 163.281 7.78898C163.254 7.65768 163.271 7.56077 163.332 7.49824C163.38 7.44822 163.437 7.44822 163.505 7.49824C163.573 7.54826 163.692 7.59203 163.861 7.62954C164.038 7.66706 164.319 7.69207 164.706 7.70457C165.092 7.71708 165.635 7.71708 166.334 7.70457C167.297 7.68581 168.077 7.65455 168.674 7.61079C169.278 7.56077 169.739 7.49512 170.058 7.41383C170.153 7.38882 170.234 7.37632 170.302 7.37632C170.377 7.37007 170.468 7.37945 170.577 7.40445C170.733 7.43572 170.882 7.48886 171.024 7.56389C171.174 7.63267 171.292 7.69207 171.381 7.74209Z" fill="white"/>
<path d="M170.241 11.456C170.16 11.4185 170.136 11.3591 170.17 11.2778C170.706 11.0778 171.218 10.8089 171.706 10.4713C172.201 10.1274 172.652 9.74287 173.059 9.3177C173.473 8.89254 173.826 8.44861 174.118 7.98593C174.409 7.517 174.623 7.05432 174.759 6.59789C174.766 6.57913 174.769 6.551 174.769 6.51348C174.769 6.45721 174.745 6.42282 174.698 6.41032C174.657 6.39156 174.606 6.38843 174.545 6.40094C174.063 6.44471 173.673 6.50723 173.375 6.58851C173.076 6.66354 172.839 6.73232 172.663 6.79484C172.486 6.85111 172.33 6.87925 172.195 6.87925C172.093 6.87925 171.995 6.86362 171.9 6.83236C171.811 6.79484 171.716 6.72919 171.615 6.6354C171.459 6.4916 171.343 6.34779 171.269 6.20399C171.201 6.06018 171.167 5.91325 171.167 5.76319C171.221 5.68816 171.289 5.67253 171.37 5.7163C171.438 5.78507 171.537 5.82884 171.666 5.8476C171.801 5.86635 171.967 5.87261 172.164 5.86635C172.307 5.8601 172.496 5.8476 172.734 5.82884C172.978 5.80383 173.229 5.77882 173.487 5.75381C173.745 5.72255 173.962 5.69754 174.138 5.67878C174.599 5.63501 174.911 5.52872 175.074 5.35991C175.162 5.27862 175.257 5.23798 175.359 5.23798C175.434 5.23798 175.502 5.25674 175.563 5.29426C175.658 5.34427 175.78 5.41618 175.929 5.50996C176.078 5.60375 176.227 5.70379 176.377 5.81008C176.533 5.91637 176.658 6.01329 176.753 6.10082C176.814 6.15709 176.845 6.21962 176.845 6.28839C176.845 6.35092 176.817 6.41344 176.763 6.47597C176.716 6.53224 176.645 6.57288 176.55 6.59789C176.441 6.6229 176.336 6.6823 176.234 6.77608C176.139 6.86987 176.058 6.98241 175.99 7.11372C175.671 7.73271 175.312 8.27667 174.911 8.7456C175.291 8.80813 175.661 8.90504 176.02 9.03634C176.387 9.16764 176.706 9.33021 176.977 9.52403C177.255 9.71786 177.445 9.94295 177.547 10.1993C177.615 10.3494 177.648 10.4994 177.648 10.6495C177.648 10.8933 177.567 11.084 177.404 11.2216C177.241 11.3591 177.072 11.4279 176.896 11.4279C176.794 11.4279 176.699 11.4029 176.611 11.3529C176.529 11.3029 176.461 11.2278 176.407 11.1278C176.156 10.6213 175.905 10.2024 175.654 9.87104C175.403 9.53966 175.074 9.2583 174.667 9.02696C174.104 9.63345 173.453 10.1336 172.714 10.5276C171.981 10.9215 171.157 11.2309 170.241 11.456Z" fill="white"/>
<path d="M180.263 11.9625C180.121 11.9625 179.989 11.9125 179.867 11.8124C179.751 11.7124 179.663 11.5842 179.602 11.4279C179.541 11.2716 179.521 11.1153 179.541 10.959C179.589 10.6651 179.622 10.2306 179.643 9.65533C179.663 9.07386 179.673 8.28605 179.673 7.29191V5.56624C179.673 5.29113 179.65 5.09105 179.602 4.966C179.561 4.8347 179.473 4.75029 179.338 4.71278C179.31 4.68777 179.297 4.65651 179.297 4.61899C179.297 4.57522 179.31 4.54396 179.338 4.52521C179.487 4.47519 179.65 4.45018 179.826 4.45018C180.002 4.45018 180.185 4.48144 180.375 4.54396C180.572 4.60023 180.745 4.70027 180.894 4.84408C180.982 4.92536 181.027 5.01602 181.027 5.11606C181.027 5.19734 181.003 5.26925 180.955 5.33177C180.908 5.41305 180.864 5.58499 180.823 5.8476C180.789 6.1102 180.765 6.54162 180.752 7.14185C181.037 7.15436 181.328 7.18249 181.627 7.22626C181.932 7.27003 182.22 7.3388 182.492 7.43259C182.77 7.52013 183.011 7.6358 183.214 7.7796C183.425 7.91716 183.57 8.0891 183.652 8.29543C183.679 8.3642 183.699 8.42986 183.713 8.49238C183.726 8.5549 183.733 8.61743 183.733 8.67995C183.733 8.90504 183.655 9.08324 183.499 9.21454C183.35 9.33959 183.19 9.40211 183.021 9.40211C182.933 9.40211 182.851 9.38335 182.777 9.34584C182.702 9.30832 182.641 9.24893 182.594 9.16764C182.356 8.75498 182.088 8.40797 181.79 8.12661C181.498 7.839 181.152 7.64205 180.752 7.53576V7.58265C180.752 7.99531 180.755 8.41422 180.762 8.83939C180.776 9.2583 180.789 9.64908 180.803 10.0117C180.823 10.3681 180.837 10.6682 180.843 10.9121C180.857 11.1497 180.864 11.2935 180.864 11.3435C180.864 11.4998 180.799 11.6405 180.67 11.7655C180.542 11.8968 180.406 11.9625 180.263 11.9625Z" fill="white"/>
<path d="M186.501 11.9906C186.399 11.9594 186.365 11.9031 186.399 11.8218C186.847 11.5342 187.21 11.1966 187.488 10.8089C187.766 10.415 187.969 9.94607 188.098 9.40211C188.227 8.8519 188.292 8.21102 188.292 7.47948C188.197 7.47948 188.098 7.48261 187.997 7.48886C187.902 7.48886 187.807 7.49199 187.712 7.49824L186.786 7.55451C186.799 7.78585 186.813 8.02345 186.826 8.26729C186.847 8.51114 186.867 8.7331 186.887 8.93318C186.908 9.13326 186.921 9.28331 186.928 9.38335C186.935 9.4959 186.887 9.59594 186.786 9.68347C186.684 9.771 186.565 9.8179 186.43 9.82415C186.28 9.82415 186.141 9.75225 186.012 9.60844C185.883 9.45838 185.812 9.28957 185.799 9.10199C185.792 8.94568 185.782 8.73935 185.768 8.483C185.761 8.2204 185.751 7.94842 185.738 7.66706C185.331 7.72333 185.036 7.77335 184.852 7.81712C184.669 7.86088 184.51 7.88277 184.374 7.88277C184.245 7.88277 184.106 7.839 183.957 7.75147C183.815 7.65768 183.686 7.5295 183.57 7.36694C183.462 7.20438 183.394 7.02306 183.367 6.82298C183.38 6.79172 183.404 6.77296 183.438 6.76671C183.479 6.7542 183.513 6.75733 183.54 6.77608C183.614 6.83861 183.77 6.88238 184.008 6.90739C184.245 6.9324 184.513 6.93865 184.812 6.92614C184.907 6.92614 185.029 6.92302 185.178 6.91676C185.334 6.90426 185.507 6.89488 185.697 6.88863C185.69 6.73857 185.683 6.60102 185.677 6.47597C185.67 6.35092 185.663 6.24775 185.656 6.16647C185.643 5.93513 185.605 5.76944 185.544 5.6694C185.483 5.56936 185.385 5.51622 185.249 5.50996C185.215 5.4787 185.198 5.44431 185.198 5.4068C185.198 5.37554 185.209 5.3474 185.229 5.32239C185.304 5.29113 185.382 5.26612 185.463 5.24736C185.551 5.22235 185.649 5.20985 185.758 5.20985C185.894 5.20985 186.046 5.23486 186.216 5.28488C186.392 5.32864 186.579 5.41305 186.776 5.5381C186.891 5.60688 186.948 5.70379 186.948 5.82884C186.948 5.88511 186.932 5.95076 186.898 6.02579C186.85 6.11333 186.816 6.21962 186.796 6.34467C186.782 6.46971 186.772 6.58851 186.765 6.70106C186.759 6.72606 186.755 6.76983 186.755 6.83236C187.02 6.81985 187.284 6.80422 187.549 6.78546C187.813 6.76671 188.061 6.75107 188.292 6.73857V5.96014C188.292 5.55373 188.261 5.24424 188.2 5.03165C188.146 4.81907 188.03 4.70965 187.854 4.7034C187.82 4.67839 187.803 4.644 187.803 4.60023C187.803 4.56272 187.817 4.53458 187.844 4.51583C187.952 4.41579 188.115 4.36577 188.332 4.36577C188.705 4.36577 189.089 4.50332 189.482 4.77843C189.591 4.85971 189.645 4.95975 189.645 5.07855C189.645 5.13482 189.628 5.19422 189.594 5.25674C189.56 5.31927 189.526 5.43494 189.492 5.60375C189.465 5.76631 189.452 5.94764 189.452 6.14771V6.66354C189.798 6.62603 190.048 6.56038 190.205 6.46659C190.293 6.41657 190.394 6.39156 190.51 6.39156C190.571 6.39156 190.642 6.40094 190.723 6.41969C190.873 6.46346 191.049 6.52911 191.253 6.61665C191.463 6.69793 191.632 6.79172 191.761 6.89801C191.877 6.98554 191.934 7.08558 191.934 7.19812C191.934 7.27941 191.9 7.34818 191.833 7.40445C191.771 7.46073 191.687 7.48261 191.578 7.47011C191.476 7.4576 191.317 7.44822 191.1 7.44197C190.883 7.43572 190.632 7.43259 190.347 7.43259C190.211 7.43259 190.065 7.43259 189.909 7.43259C189.76 7.43259 189.608 7.43572 189.452 7.44197C189.452 8.12974 189.367 8.72685 189.197 9.23329C189.034 9.73349 188.814 10.1587 188.536 10.5088C188.258 10.8589 187.942 11.1528 187.59 11.3904C187.244 11.628 186.881 11.8281 186.501 11.9906Z" fill="white"/>
<path d="M194.671 12C194.468 12 194.292 11.9062 194.142 11.7186C193.993 11.5311 193.918 11.3216 193.918 11.0903C193.918 11.009 193.929 10.9308 193.949 10.8558C193.996 10.6745 194.037 10.3306 194.071 9.82415C194.105 9.31145 194.122 8.67995 194.122 7.92966C194.122 7.86714 194.119 7.80774 194.112 7.75147C194.112 7.69519 194.108 7.64205 194.102 7.59203C193.593 8.01719 193.043 8.40797 192.453 8.76436C191.87 9.1145 191.28 9.41149 190.683 9.65533C190.588 9.62407 190.557 9.5678 190.591 9.48652C190.991 9.23017 191.395 8.92692 191.802 8.57679C192.216 8.22665 192.609 7.8515 192.982 7.45135C193.355 7.05119 193.691 6.64166 193.99 6.22274C194.295 5.80383 194.532 5.40367 194.702 5.02227C194.736 4.94099 194.753 4.86596 194.753 4.79719C194.753 4.67839 194.702 4.59086 194.6 4.53458C194.587 4.50957 194.58 4.48769 194.58 4.46893C194.58 4.42517 194.6 4.3939 194.641 4.37515C194.675 4.36264 194.709 4.35639 194.743 4.35639C194.783 4.35639 194.821 4.35639 194.855 4.35639C195.072 4.35639 195.295 4.40328 195.526 4.49707C195.757 4.5846 195.95 4.69089 196.106 4.81594C196.269 4.94099 196.35 5.05666 196.35 5.16295C196.35 5.28175 196.293 5.37554 196.177 5.44431C196.076 5.50684 195.977 5.59125 195.882 5.69754C195.794 5.79758 195.723 5.88198 195.669 5.95076C195.411 6.29465 195.112 6.63853 194.773 6.98241C194.963 7.04494 195.116 7.1356 195.231 7.2544C195.272 7.29816 195.292 7.37319 195.292 7.47948C195.292 7.53576 195.282 7.5889 195.262 7.63892C195.234 7.68894 195.211 7.75772 195.19 7.84525C195.177 7.93279 195.167 7.99844 195.16 8.0422C195.153 8.13599 195.15 8.23603 195.15 8.34232C195.15 8.44236 195.15 8.54553 195.15 8.65182C195.15 8.93943 195.153 9.23955 195.16 9.55217C195.173 9.85854 195.187 10.1524 195.2 10.4338C195.221 10.7089 195.234 10.9402 195.241 11.1278C195.255 11.3154 195.262 11.4342 195.262 11.4842C195.262 11.6217 195.207 11.7405 195.099 11.8406C194.99 11.9469 194.848 12 194.671 12Z" fill="white"/>
<path d="M197.205 11.7655C197.164 11.7468 197.137 11.7186 197.124 11.6811C197.117 11.6436 197.124 11.6123 197.144 11.5873C197.904 11.2997 198.64 10.9215 199.352 10.4525C200.071 9.97734 200.698 9.42087 201.234 8.78312C200.848 8.46424 200.4 8.20164 199.891 7.99531C199.878 7.9703 199.871 7.94842 199.871 7.92966C199.871 7.86714 199.901 7.82649 199.962 7.80774C200.2 7.83275 200.471 7.87651 200.776 7.93904C201.082 7.99531 201.39 8.07347 201.702 8.17351C201.858 7.94217 202.001 7.70457 202.13 7.46073C202.265 7.21063 202.381 6.95428 202.476 6.69168C202.482 6.66667 202.486 6.64478 202.486 6.62603C202.493 6.60727 202.496 6.59164 202.496 6.57913C202.496 6.48535 202.425 6.4447 202.282 6.45721C202.126 6.46346 201.957 6.47597 201.774 6.49472C201.597 6.51348 201.428 6.52286 201.265 6.52286C201.183 6.52286 201.105 6.51973 201.031 6.51348C200.956 6.50723 200.885 6.49472 200.817 6.47597C200.492 6.9324 200.078 7.37632 199.576 7.80774C199.081 8.2329 198.531 8.57366 197.927 8.83001C197.88 8.82376 197.846 8.805 197.826 8.77374C197.805 8.74248 197.799 8.71122 197.805 8.67995C198.144 8.44236 198.453 8.15162 198.731 7.80774C199.016 7.4576 199.264 7.09183 199.474 6.71043C199.684 6.32278 199.847 5.95701 199.962 5.61313C200.03 5.42556 200.064 5.27862 200.064 5.17233C200.064 5.05354 200.007 4.98163 199.891 4.95662C199.857 4.92536 199.84 4.8941 199.84 4.86284C199.84 4.83783 199.854 4.80656 199.881 4.76905C199.935 4.75029 199.993 4.73466 200.054 4.72216C200.122 4.70965 200.19 4.7034 200.257 4.7034C200.434 4.7034 200.62 4.74091 200.817 4.81594C201.014 4.89097 201.187 5.01915 201.336 5.20047C201.431 5.30676 201.479 5.40993 201.479 5.50996C201.479 5.5975 201.445 5.67253 201.377 5.73505C201.35 5.76006 201.326 5.78195 201.306 5.8007C201.285 5.81946 201.268 5.83822 201.255 5.85697C201.384 5.85697 201.516 5.85072 201.651 5.83822C201.787 5.82571 201.93 5.80696 202.079 5.78195C202.248 5.75694 202.384 5.73193 202.486 5.70692C202.594 5.67565 202.683 5.62876 202.75 5.56624C202.832 5.49121 202.917 5.45369 203.005 5.45369C203.073 5.45369 203.13 5.46932 203.178 5.50059C203.334 5.58187 203.507 5.68816 203.697 5.81946C203.893 5.95076 204.073 6.08206 204.236 6.21336C204.311 6.28214 204.348 6.35404 204.348 6.42907C204.348 6.54162 204.277 6.62915 204.134 6.69168C204.026 6.73544 203.937 6.80109 203.87 6.88863C203.802 6.96991 203.737 7.07308 203.676 7.19812C203.541 7.46698 203.395 7.7202 203.239 7.9578C203.083 8.19539 202.917 8.4236 202.74 8.64244C202.978 8.78624 203.168 8.95193 203.31 9.13951C203.398 9.2458 203.459 9.35209 203.493 9.45838C203.534 9.56467 203.554 9.67097 203.554 9.77726C203.554 9.98984 203.486 10.1712 203.351 10.3212C203.222 10.465 203.073 10.5369 202.903 10.5369C202.815 10.5369 202.727 10.5119 202.638 10.4619C202.55 10.4056 202.469 10.3181 202.394 10.1993C202.326 10.0742 202.252 9.95545 202.17 9.84291C202.089 9.72411 202.008 9.61469 201.926 9.51465C201.309 10.0774 200.603 10.5401 199.81 10.9027C199.016 11.2653 198.148 11.553 197.205 11.7655ZM204.623 5.86635C204.48 5.70379 204.314 5.54435 204.124 5.38804C203.934 5.22548 203.71 5.08792 203.452 4.97538C203.439 4.95037 203.432 4.92849 203.432 4.90973C203.432 4.85346 203.463 4.81282 203.524 4.78781C203.592 4.78156 203.656 4.77843 203.717 4.77843C203.785 4.77218 203.849 4.76905 203.91 4.76905C204.148 4.76905 204.361 4.79719 204.551 4.85346C204.748 4.90348 204.911 4.99726 205.04 5.13482C205.108 5.20359 205.155 5.27237 205.182 5.34115C205.209 5.40993 205.223 5.4787 205.223 5.54748C205.223 5.66628 205.186 5.76944 205.111 5.85697C205.036 5.93826 204.952 5.9789 204.857 5.9789C204.775 5.9789 204.697 5.94138 204.623 5.86635ZM205.416 4.91911C205.043 4.644 204.595 4.45018 204.073 4.33763C204.046 4.31262 204.032 4.28136 204.032 4.24384C204.032 4.20633 204.053 4.17507 204.094 4.15006C204.399 4.05002 204.687 4 204.958 4C205.237 4 205.471 4.05002 205.66 4.15006C205.769 4.21258 205.847 4.28449 205.894 4.36577C205.942 4.4408 205.966 4.51895 205.966 4.60023C205.966 4.70027 205.932 4.79093 205.864 4.87222C205.796 4.9535 205.715 4.99414 205.62 4.99414C205.559 4.99414 205.491 4.96913 205.416 4.91911Z" fill="white"/>
<path d="M211.674 7.74209C211.81 7.82337 211.888 7.92966 211.908 8.06096C211.928 8.19226 211.888 8.30793 211.786 8.40797C211.684 8.50176 211.515 8.5424 211.277 8.52989C210.992 8.51114 210.67 8.50176 210.31 8.50176C209.958 8.50176 209.612 8.50176 209.273 8.50176C209.184 8.50176 209.093 8.50176 208.998 8.50176C208.91 8.50176 208.825 8.50176 208.744 8.50176C208.588 8.50176 208.384 8.50488 208.133 8.51114C207.882 8.51114 207.607 8.51739 207.309 8.52989C207.01 8.53615 206.712 8.54553 206.413 8.55803C206.122 8.57054 205.854 8.58929 205.61 8.6143C205.365 8.63306 205.172 8.65494 205.03 8.67995C204.799 8.72372 204.619 8.7331 204.49 8.70809C204.361 8.68308 204.239 8.62993 204.124 8.54865C203.995 8.44861 203.88 8.32982 203.778 8.19226C203.676 8.04846 203.608 7.91403 203.575 7.78898C203.547 7.65768 203.564 7.56077 203.625 7.49824C203.673 7.44822 203.731 7.44822 203.798 7.49824C203.866 7.54826 203.985 7.59203 204.155 7.62954C204.331 7.66706 204.612 7.69207 204.999 7.70457C205.386 7.71708 205.928 7.71708 206.627 7.70457C207.59 7.68581 208.37 7.65455 208.967 7.61079C209.571 7.56077 210.032 7.49512 210.351 7.41383C210.446 7.38882 210.528 7.37632 210.595 7.37632C210.67 7.37007 210.762 7.37945 210.87 7.40445C211.026 7.43572 211.175 7.48886 211.318 7.56389C211.467 7.63267 211.586 7.69207 211.674 7.74209Z" fill="white"/>
<path d="M210.473 11.456C210.392 11.4185 210.368 11.3591 210.402 11.2778C210.938 11.0778 211.45 10.8089 211.938 10.4713C212.434 10.1274 212.885 9.74287 213.292 9.3177C213.706 8.89254 214.058 8.44861 214.35 7.98593C214.642 7.517 214.855 7.05432 214.991 6.59789C214.998 6.57913 215.001 6.551 215.001 6.51348C215.001 6.45721 214.977 6.42282 214.93 6.41032C214.889 6.39156 214.838 6.38843 214.777 6.40094C214.296 6.44471 213.906 6.50723 213.607 6.58851C213.309 6.66354 213.071 6.73232 212.895 6.79484C212.719 6.85111 212.563 6.87925 212.427 6.87925C212.325 6.87925 212.227 6.86362 212.132 6.83236C212.044 6.79484 211.949 6.72919 211.847 6.6354C211.535 6.3603 211.386 6.06956 211.399 5.76319C211.453 5.68816 211.521 5.67253 211.603 5.7163C211.671 5.78507 211.769 5.82884 211.898 5.8476C212.033 5.86635 212.2 5.87261 212.396 5.86635C212.539 5.8601 212.729 5.8476 212.966 5.82884C213.21 5.80383 213.461 5.77882 213.719 5.75381C213.977 5.72255 214.194 5.69754 214.37 5.67878C214.832 5.63501 215.144 5.52872 215.306 5.35991C215.395 5.27862 215.486 5.23798 215.581 5.23798C215.656 5.23798 215.727 5.25674 215.795 5.29426C215.89 5.34427 216.012 5.41618 216.161 5.50996C216.31 5.60375 216.46 5.70379 216.609 5.81008C216.765 5.91637 216.89 6.01329 216.985 6.10082C217.046 6.15709 217.077 6.21962 217.077 6.28839C217.077 6.35092 217.05 6.41344 216.996 6.47597C216.948 6.53224 216.877 6.57288 216.782 6.59789C216.538 6.66041 216.351 6.83236 216.222 7.11372C215.903 7.73271 215.544 8.27667 215.144 8.7456C215.524 8.80813 215.893 8.90504 216.253 9.03634C216.619 9.16764 216.938 9.33021 217.209 9.52403C217.487 9.71786 217.677 9.94295 217.779 10.1993C217.813 10.2806 217.837 10.3587 217.85 10.4338C217.864 10.5025 217.871 10.5713 217.871 10.6401C217.871 10.8839 217.789 11.0778 217.626 11.2216C217.47 11.3591 217.304 11.4279 217.128 11.4279C217.026 11.4279 216.931 11.4029 216.843 11.3529C216.761 11.3029 216.694 11.2278 216.639 11.1278C216.388 10.6213 216.137 10.2024 215.886 9.87104C215.635 9.53966 215.306 9.2583 214.899 9.02696C214.336 9.63345 213.685 10.1336 212.946 10.5276C212.213 10.9215 211.389 11.2309 210.473 11.456ZM217.586 5.86635C217.457 5.69754 217.301 5.52872 217.118 5.35991C216.934 5.19109 216.721 5.04416 216.477 4.91911C216.463 4.8941 216.456 4.87222 216.456 4.85346C216.456 4.79093 216.487 4.75342 216.548 4.74091C216.88 4.72841 217.175 4.75342 217.433 4.81594C217.698 4.87222 217.901 4.98789 218.044 5.16295C218.098 5.22548 218.135 5.29113 218.155 5.35991C218.183 5.42868 218.196 5.49433 218.196 5.55686C218.196 5.67565 218.155 5.77882 218.074 5.86635C217.999 5.95389 217.915 5.99766 217.82 5.99766C217.732 5.99766 217.653 5.95389 217.586 5.86635ZM218.43 4.966C218.261 4.82845 218.064 4.7034 217.84 4.59086C217.623 4.47206 217.386 4.3814 217.128 4.31887C217.107 4.28761 217.097 4.2626 217.097 4.24384C217.097 4.18757 217.121 4.15006 217.168 4.1313C217.426 4.06252 217.677 4.02814 217.921 4.02814C218.077 4.02814 218.223 4.04377 218.359 4.07503C218.501 4.10004 218.627 4.14693 218.735 4.21571C218.83 4.27823 218.898 4.34701 218.939 4.42204C218.98 4.49707 219 4.5721 219 4.64713C219 4.75342 218.966 4.84721 218.898 4.92849C218.83 5.00977 218.749 5.05041 218.654 5.05041C218.62 5.05041 218.583 5.04416 218.542 5.03165C218.501 5.01915 218.464 4.99726 218.43 4.966Z" fill="white"/>
</svg>
